<?xml version="1.0" standalone="no"?><svg xmlns:xlink="http://www.w3.org/1999/xlink" xmlns="http://www.w3.org/2000/svg" viewBox="0 0 1000 875.0133139545075" preserveAspectRatio="xMaxYMax slice"><g transform="scale(1.3482485577111054)"><rect x="0" y="0" width="741.7142857142857" height="695.3571428571428" fill="#0d0d0d"/><circle cx="115.89500000000001" cy="69.53500000000001" r="4.635" fill="#f36b2b"/><circle cx="301.325" cy="69.53500000000001" r="4.635" fill="#f36b2b"/><circle cx="486.745" cy="69.53500000000001" r="4.635" fill="#ffca4f"/><circle cx="162.245" cy="115.89500000000001" r="4.635" fill="#ffca4f"/><circle cx="69.53500000000001" cy="162.245" r="4.635" fill="#ffca4f"/><circle cx="208.605" cy="162.245" r="4.635" fill="#ffca4f"/><circle cx="718.535" cy="208.605" r="4.635" fill="#f36b2b"/><circle cx="579.465" cy="254.965" r="4.635" fill="#ffca4f"/><circle cx="672.175" cy="254.965" r="4.635" fill="#f36b2b"/><circle cx="301.325" cy="301.325" r="4.635" fill="#ffca4f"/><circle cx="394.03499999999997" cy="347.675" r="4.635" fill="#f36b2b"/><circle cx="579.465" cy="347.675" r="4.635" fill="#f36b2b"/><circle cx="672.175" cy="347.675" r="4.635" fill="#f36b2b"/><circle cx="162.245" cy="394.03499999999997" r="4.635" fill="#ffca4f"/><circle cx="718.535" cy="394.03499999999997" r="4.635" fill="#f36b2b"/><circle cx="254.965" cy="440.395" r="4.635" fill="#f36b2b"/><circle cx="69.53500000000001" cy="533.105" r="4.635" fill="#f36b2b"/><circle cx="394.03499999999997" cy="579.465" r="4.635" fill="#f36b2b"/><circle cx="533.105" cy="672.175" r="4.635" fill="#f36b2b"/></g></svg>